<svg width="147" height="54" viewBox="0 0 147 54" fill="none" xmlns="http://www.w3.org/2000/svg">
<rect width="147" height="54" fill="white"/>
<path d="M14.6635 12.9407V47.4458H10.3365V12.9407H14.9539M19 8.62402H6V51.7532H19V8.62402Z" fill="#4F45E4"/>
<path d="M32 15.1782V49.6834H27.6635V15.1782H32.281M36.3271 10.8616H23.3271V53.9907H36.3271V10.8616Z" fill="#4F45E4"/>
<path d="M23.3271 4.31664V38.8218H18.9906V4.31664H23.6081M27.6635 0H14.6635V43.1291H27.6635V0Z" fill="#4F45E4"/>
<path d="M40.6635 6.47021V40.9754H36.3271V6.47021H40.9445M45 2.15356H32V45.2827H45V2.15356V2.15356Z" fill="#4F45E4"/>
<path d="M71.5547 26.7891V34.6777C71.2448 35.0514 70.7663 35.457 70.1191 35.8945C69.472 36.3229 68.638 36.6921 67.6172 37.002C66.5964 37.3118 65.3613 37.4668 63.9121 37.4668C62.627 37.4668 61.4557 37.2572 60.3984 36.8379C59.3411 36.4095 58.4297 35.7852 57.6641 34.9648C56.9076 34.1445 56.3242 33.1419 55.9141 31.957C55.5039 30.763 55.2988 29.4004 55.2988 27.8691V26.625C55.2988 25.0938 55.4948 23.7311 55.8867 22.5371C56.2878 21.3431 56.8574 20.3359 57.5957 19.5156C58.334 18.6953 59.2135 18.071 60.2344 17.6426C61.2552 17.2142 62.39 17 63.6387 17C65.3704 17 66.7923 17.2826 67.9043 17.8477C69.0163 18.4036 69.8639 19.1784 70.4473 20.1719C71.0397 21.1562 71.4043 22.2865 71.541 23.5625H67.5625C67.4622 22.888 67.2708 22.3001 66.9883 21.7988C66.7057 21.2975 66.3001 20.9056 65.7715 20.623C65.252 20.3405 64.5775 20.1992 63.748 20.1992C63.0645 20.1992 62.4538 20.3405 61.916 20.623C61.3874 20.8965 60.9408 21.3021 60.5762 21.8398C60.2116 22.3776 59.9336 23.043 59.7422 23.8359C59.5508 24.6289 59.4551 25.5495 59.4551 26.5977V27.8691C59.4551 28.9082 59.5553 29.8288 59.7559 30.6309C59.9564 31.4238 60.2526 32.0938 60.6445 32.6406C61.0456 33.1784 61.5378 33.584 62.1211 33.8574C62.7044 34.1309 63.3835 34.2676 64.1582 34.2676C64.8053 34.2676 65.3431 34.2129 65.7715 34.1035C66.209 33.9941 66.5599 33.862 66.8242 33.707C67.0977 33.543 67.3073 33.388 67.4531 33.2422V29.7148H63.707V26.7891H71.5547Z" fill="#4F45E4"/>
<path d="M82.6016 33.8574V27.2676C82.6016 26.7936 82.5241 26.388 82.3691 26.0508C82.2142 25.7044 81.9727 25.4355 81.6445 25.2441C81.3255 25.0527 80.9108 24.957 80.4004 24.957C79.9629 24.957 79.5846 25.0345 79.2656 25.1895C78.9466 25.3353 78.7005 25.5495 78.5273 25.832C78.3542 26.1055 78.2676 26.429 78.2676 26.8027H74.3301C74.3301 26.1738 74.4759 25.5768 74.7676 25.0117C75.0592 24.4466 75.4831 23.9499 76.0391 23.5215C76.5951 23.084 77.2559 22.7422 78.0215 22.4961C78.7962 22.25 79.6621 22.127 80.6191 22.127C81.7676 22.127 82.7884 22.3184 83.6816 22.7012C84.5749 23.084 85.2767 23.6582 85.7871 24.4238C86.3066 25.1895 86.5664 26.1465 86.5664 27.2949V33.625C86.5664 34.4362 86.6165 35.1016 86.7168 35.6211C86.8171 36.1315 86.9629 36.5781 87.1543 36.9609V37.1934H83.1758C82.9844 36.7923 82.8385 36.291 82.7383 35.6895C82.6471 35.0788 82.6016 34.4681 82.6016 33.8574ZM83.1211 28.1836L83.1484 30.4121H80.9473C80.4277 30.4121 79.9766 30.4714 79.5938 30.5898C79.2109 30.7083 78.8965 30.877 78.6504 31.0957C78.4043 31.3053 78.222 31.5514 78.1035 31.834C77.9941 32.1165 77.9395 32.4264 77.9395 32.7637C77.9395 33.1009 78.0169 33.4062 78.1719 33.6797C78.3268 33.944 78.5501 34.1536 78.8418 34.3086C79.1335 34.4544 79.4753 34.5273 79.8672 34.5273C80.4596 34.5273 80.9746 34.4089 81.4121 34.1719C81.8496 33.9349 82.1868 33.6432 82.4238 33.2969C82.6699 32.9505 82.7975 32.6224 82.8066 32.3125L83.8457 33.9805C83.6999 34.3542 83.4993 34.7415 83.2441 35.1426C82.998 35.5436 82.6836 35.9219 82.3008 36.2773C81.918 36.6237 81.4577 36.9108 80.9199 37.1387C80.3822 37.3574 79.7441 37.4668 79.0059 37.4668C78.0671 37.4668 77.2148 37.2799 76.4492 36.9062C75.6927 36.5234 75.0911 35.9993 74.6445 35.334C74.207 34.6595 73.9883 33.8939 73.9883 33.0371C73.9883 32.2624 74.1341 31.5742 74.4258 30.9727C74.7174 30.3711 75.1458 29.8652 75.7109 29.4551C76.2852 29.0358 77.0007 28.7214 77.8574 28.5117C78.7142 28.293 79.7077 28.1836 80.8379 28.1836H83.1211Z" fill="#4F45E4"/>
<path d="M101.373 34.1172V37.1934H90.1348V34.1172H101.373ZM101.154 24.6699L91.7207 37.1934H89.082V34.8555L98.4746 22.4004H101.154V24.6699ZM99.7598 22.4004V25.4902H89.3008V22.4004H99.7598Z" fill="#4F45E4"/>
<path d="M110.438 37.4668C109.289 37.4668 108.259 37.2845 107.348 36.9199C106.436 36.5462 105.661 36.0312 105.023 35.375C104.395 34.7188 103.911 33.9577 103.574 33.0918C103.237 32.2168 103.068 31.2871 103.068 30.3027V29.7559C103.068 28.6348 103.228 27.6094 103.547 26.6797C103.866 25.75 104.322 24.9434 104.914 24.2598C105.516 23.5762 106.245 23.0521 107.102 22.6875C107.958 22.3138 108.924 22.127 110 22.127C111.048 22.127 111.978 22.3001 112.789 22.6465C113.6 22.9928 114.279 23.485 114.826 24.123C115.382 24.7611 115.801 25.5267 116.084 26.4199C116.367 27.304 116.508 28.2884 116.508 29.373V31.0137H104.75V28.3887H112.639V28.0879C112.639 27.541 112.538 27.0534 112.338 26.625C112.146 26.1875 111.855 25.8411 111.463 25.5859C111.071 25.3307 110.57 25.2031 109.959 25.2031C109.439 25.2031 108.993 25.3171 108.619 25.5449C108.245 25.7728 107.94 26.0918 107.703 26.502C107.475 26.9121 107.302 27.3952 107.184 27.9512C107.074 28.498 107.02 29.0996 107.02 29.7559V30.3027C107.02 30.8952 107.102 31.4421 107.266 31.9434C107.439 32.4447 107.68 32.8776 107.99 33.2422C108.309 33.6068 108.692 33.8893 109.139 34.0898C109.594 34.2904 110.109 34.3906 110.684 34.3906C111.395 34.3906 112.055 34.2539 112.666 33.9805C113.286 33.6979 113.819 33.2741 114.266 32.709L116.18 34.7871C115.87 35.2337 115.446 35.6621 114.908 36.0723C114.38 36.4824 113.742 36.8197 112.994 37.084C112.247 37.3392 111.395 37.4668 110.438 37.4668Z" fill="#4F45E4"/>
<path d="M125.996 22.4004V25.1895H117.383V22.4004H125.996ZM119.516 18.75H123.453V32.7363C123.453 33.1647 123.508 33.4928 123.617 33.7207C123.736 33.9486 123.909 34.1081 124.137 34.1992C124.365 34.2812 124.652 34.3223 124.998 34.3223C125.244 34.3223 125.463 34.3132 125.654 34.2949C125.855 34.2676 126.023 34.2402 126.16 34.2129L126.174 37.1113C125.837 37.2207 125.472 37.3073 125.08 37.3711C124.688 37.4349 124.255 37.4668 123.781 37.4668C122.915 37.4668 122.159 37.3255 121.512 37.043C120.874 36.7513 120.382 36.2865 120.035 35.6484C119.689 35.0104 119.516 34.1719 119.516 33.1328V18.75Z" fill="#4F45E4"/>
<path d="M127.254 29.9473V29.6602C127.254 28.5755 127.409 27.5775 127.719 26.666C128.029 25.7454 128.48 24.9479 129.072 24.2734C129.665 23.599 130.394 23.0749 131.26 22.7012C132.126 22.3184 133.119 22.127 134.24 22.127C135.361 22.127 136.359 22.3184 137.234 22.7012C138.109 23.0749 138.843 23.599 139.436 24.2734C140.037 24.9479 140.493 25.7454 140.803 26.666C141.113 27.5775 141.268 28.5755 141.268 29.6602V29.9473C141.268 31.0228 141.113 32.0208 140.803 32.9414C140.493 33.8529 140.037 34.6504 139.436 35.334C138.843 36.0085 138.114 36.5326 137.248 36.9062C136.382 37.2799 135.389 37.4668 134.268 37.4668C133.146 37.4668 132.148 37.2799 131.273 36.9062C130.408 36.5326 129.674 36.0085 129.072 35.334C128.48 34.6504 128.029 33.8529 127.719 32.9414C127.409 32.0208 127.254 31.0228 127.254 29.9473ZM131.191 29.6602V29.9473C131.191 30.5671 131.246 31.1458 131.355 31.6836C131.465 32.2214 131.638 32.6953 131.875 33.1055C132.121 33.5065 132.44 33.821 132.832 34.0488C133.224 34.2767 133.702 34.3906 134.268 34.3906C134.814 34.3906 135.284 34.2767 135.676 34.0488C136.068 33.821 136.382 33.5065 136.619 33.1055C136.856 32.6953 137.029 32.2214 137.139 31.6836C137.257 31.1458 137.316 30.5671 137.316 29.9473V29.6602C137.316 29.0586 137.257 28.4935 137.139 27.9648C137.029 27.4271 136.852 26.9531 136.605 26.543C136.368 26.1237 136.054 25.7956 135.662 25.5586C135.27 25.3216 134.796 25.2031 134.24 25.2031C133.684 25.2031 133.21 25.3216 132.818 25.5586C132.436 25.7956 132.121 26.1237 131.875 26.543C131.638 26.9531 131.465 27.4271 131.355 27.9648C131.246 28.4935 131.191 29.0586 131.191 29.6602Z" fill="#4F45E4"/>
</svg>
