<?xml version="1.0" encoding="utf-8"?>
<!-- Generator: Adobe Illustrator 24.0.1, SVG Export Plug-In . SVG Version: 6.00 Build 0)  -->
<svg version="1.1" id="Layer_1" xmlns="http://www.w3.org/2000/svg" xmlns:xlink="http://www.w3.org/1999/xlink" x="0px" y="0px"
	 viewBox="0 0 745.7 512.2" style="enable-background:new 0 0 745.7 512.2;" xml:space="preserve">
<style type="text/css">
	.st0{opacity:0.2;fill:#4F45E4;}
	.st1{fill:#BF7643;}
	.st2{fill:#111827;}
	.st3{fill:#242936;}
	.st4{fill:#5B5D62;}
	.st5{fill:#171F2D;}
	.st6{fill:#333947;}
	.st7{fill:#FFC196;}
	.st8{fill:#2C2CB7;}
	.st9{fill:#F9AB75;}
	.st10{fill:#EF9354;}
	.st11{fill:#191919;}
	.st12{fill:#262626;}
	.st13{fill:#4F45E4;}
	.st14{fill:#FFFFFF;}
	.st15{fill:#2F2FA5;}
	.st16{fill:#D1D1D1;}
	.st17{fill:#353535;}
	.st18{opacity:0.5;fill:#9FDAFC;}
	.st19{fill:#FFB583;}
	.st20{fill:#2086A5;}
	.st21{fill:#A54321;}
	.st22{fill:#D36231;}
	.st23{fill:#FF754D;}
	.st24{fill:#D8D8D8;}
	.st25{fill:#AAAAAA;}
	.st26{fill:#8C8C8C;}
	.st27{fill:#5353F2;}
</style>
<ellipse class="st0" cx="400.2" cy="455.1" rx="305.1" ry="21.9"/>
<rect x="604.7" y="449.8" class="st1" width="21.8" height="12.1"/>
<rect x="171.9" y="449.8" class="st1" width="21.8" height="12.1"/>
<rect x="187.9" y="343.5" class="st2" width="429.9" height="98.8"/>
<path class="st2" d="M93.3,230.2l49.8,46.3l53.7,76.3h404.4l55.7-91.4l47.8-31.2L645.2,188l10.6-102.3C657,44.5,569.7,9,382.1,24.9
	c-187.6,15.9-248.6,58.8-243.1,91.7l7.8,73.9L93.3,230.2z"/>
<path class="st3" d="M704.8,230.2c29,28,16.2,80-34.5,80c-36.4,76.9-40.7,144.3-40.7,144.3h-28.4c0,0-11.4-189,54.5-225
	C671.2,221.1,692.1,218,704.8,230.2z"/>
<g>
	<path class="st2" d="M678.5,240c-1.5,0-2.4,7.9-2.3,13.4c0.2,5.5,1.4,6.6,2.9,6.5c1.5,0,2.6-1.2,2.5-6.7
		C681.4,247.7,679.9,240,678.5,240z"/>
	<path class="st2" d="M699.1,250.1c-0.3-0.2-0.9,0.1-1.6,0.7c-0.7,0.6-1.5,1.4-2.5,2.3c-1,0.9-2.1,1.9-3.2,2.8
		c-1.1,0.9-2.3,1.8-3.4,2.6c-1.1,0.8-1.9,1.4-2.6,1.9c-0.7,0.5-1.2,1-1.5,1.4c-0.7,0.8-0.7,1.6-0.4,2.2c0.3,0.7,0.8,1.2,2,1.2
		c0.6,0,1.4-0.2,2.3-0.5c1-0.4,2.1-1,3.4-1.9c1.3-0.9,2.6-2.1,3.7-3.4c1.1-1.3,2.1-2.7,2.8-4.1c0.7-1.3,1.1-2.6,1.3-3.5
		C699.5,250.9,699.4,250.2,699.1,250.1z"/>
	<path class="st2" d="M705.4,269.8c0-0.4-0.6-0.7-1.4-0.9c-0.4-0.1-0.9-0.2-1.5-0.4c-0.6-0.1-1.2-0.2-1.8-0.3
		c-2.6-0.4-5.9-0.8-8.6-1.1c-0.7-0.1-1.3-0.1-1.8-0.1c-0.6,0-1,0-1.5,0c-0.9,0-1.6,0.1-2.1,0.3c-1,0.3-1.4,0.9-1.6,1.7
		c-0.1,0.7,0,1.4,1,2.1c0.5,0.3,1.1,0.6,2,0.9c0.5,0.1,1,0.2,1.5,0.3c0.6,0.1,1.2,0.2,2,0.2c0.7,0.1,1.5,0.1,2.3,0.1
		c0.4,0,0.8,0,1.2,0c0.4,0,0.8,0,1.2-0.1c0.8,0,1.6-0.1,2.3-0.2c0.8-0.1,1.5-0.2,2.2-0.3c0.7-0.1,1.3-0.3,1.9-0.5
		c0.6-0.2,1.1-0.4,1.5-0.5C704.9,270.5,705.4,270.2,705.4,269.8z"/>
	<path class="st2" d="M691.3,287.1c0.4-0.1,0.6-0.6,0.7-1.5c0.1-0.9,0-2.1-0.3-3.5c-0.3-1.4-0.8-2.9-1.5-4.4c-0.7-1.5-1.6-2.8-2.5-4
		c-0.9-1.1-1.8-2-2.6-2.5c-0.8-0.6-1.4-0.9-2-1c-1.1-0.3-1.7,0.1-2.2,0.7c-0.4,0.6-0.6,1.3-0.2,2.2c0.2,0.5,0.5,1,1,1.6
		c0.5,0.6,1.1,1.4,1.9,2.3c0.8,0.9,1.6,2,2.4,3.1c0.8,1.1,1.6,2.2,2.2,3.3c0.7,1,1.2,2,1.8,2.6C690.4,286.8,690.9,287.2,691.3,287.1
		z"/>
	<path class="st2" d="M675.2,289.7c0.7,0.1,1.6-1.6,2.4-4c0.1-0.3,0.2-0.6,0.3-0.9c0.1-0.3,0.1-0.7,0.2-1c0.1-0.7,0.3-1.4,0.4-2.1
		c0.1-0.4,0.1-0.7,0.2-1.1c0-0.4,0.1-0.7,0.1-1.1c0-0.7,0.1-1.4,0.1-2c0-0.7,0-1.2,0-1.8c-0.1-0.5-0.1-1-0.2-1.4
		c-0.2-0.8-0.4-1.4-0.6-1.9c-0.5-0.9-1.2-1.1-1.9-1.1c-0.7,0-1.4,0.3-1.8,1.2c-0.2,0.4-0.4,1-0.5,1.8c-0.1,0.4-0.1,0.8-0.1,1.3
		c0,0.5-0.1,1.1-0.1,1.7c0,0.6,0,1.3,0,1.9c0,0.3,0,0.7,0.1,1c0,0.3,0,0.7,0,1c0,0.7,0.1,1.4,0.1,2c0,0.3,0.1,0.7,0.1,1
		c0,0.3,0.1,0.6,0.1,0.9C674,287.7,674.4,289.6,675.2,289.7z"/>
	<path class="st2" d="M659.5,278.4c0.1,0.3,0.7,0.5,1.6,0.5c0.9,0,2.1-0.2,3.5-0.6c1.4-0.4,2.9-1.1,4.3-1.9c1.4-0.8,2.8-1.8,3.9-2.8
		c1.1-1,1.9-2,2.4-2.8c0.5-0.8,0.8-1.5,0.9-2.1c0.2-1.1-0.2-1.7-0.8-2.2c-0.6-0.4-1.3-0.6-2.2-0.1c-0.5,0.2-1,0.6-1.6,1.1
		c-0.6,0.5-1.4,1.2-2.3,2.1c-0.9,0.9-2,1.8-3,2.7c-1.1,0.9-2.2,1.8-3.2,2.6c-1,0.8-1.9,1.5-2.5,2.1
		C659.7,277.6,659.4,278.1,659.5,278.4z"/>
	<path class="st2" d="M655.6,266.4c0,0.4,0.4,0.7,1.2,1.1c0.4,0.2,0.9,0.4,1.5,0.5c0.6,0.1,1.2,0.3,1.9,0.4c0.3,0.1,0.7,0.1,1.1,0.1
		c0.4,0,0.7,0.1,1.1,0.1c0.8,0.1,1.5,0.1,2.3,0c0.4,0,0.8,0,1.2,0c0.4,0,0.8-0.1,1.2-0.1c0.4,0,0.8-0.1,1.1-0.1
		c0.4,0,0.7-0.1,1.1-0.2c0.7-0.2,1.3-0.3,1.9-0.5c0.6-0.2,1-0.4,1.5-0.5c0.9-0.3,1.4-0.8,1.8-1.1c0.8-0.8,0.9-1.5,0.6-2.2
		c-0.2-0.7-0.7-1.2-1.7-1.4c-0.5-0.1-1.2-0.1-2,0c-0.4,0-0.9,0.1-1.4,0.2c-0.5,0.1-1.1,0.2-1.7,0.3c-0.3,0.1-0.6,0.1-1,0.2
		c-0.3,0.1-0.7,0.1-1,0.2c-0.3,0.1-0.7,0.1-1,0.2c-0.3,0.1-0.7,0.1-1,0.2c-0.7,0.1-1.4,0.3-2.1,0.4c-0.3,0.1-0.7,0.1-1,0.2
		c-0.3,0.1-0.6,0.2-1,0.2c-0.6,0.1-1.2,0.3-1.7,0.4c-0.5,0.1-1,0.3-1.4,0.4C656.1,265.7,655.6,266,655.6,266.4z"/>
	<path class="st2" d="M665.9,248.5c-0.4,0.1-0.6,0.6-0.7,1.5c-0.1,0.8,0,2,0.4,3.3c0.4,1.3,1,2.7,1.8,4.1c0.8,1.3,1.9,2.5,3,3.5
		c1.1,0.9,2.1,1.5,3,1.9c0.8,0.4,1.6,0.5,2.1,0.5c1.1,0,1.6-0.6,1.9-1.2c0.3-0.7,0.3-1.4-0.2-2.2c-0.2-0.4-0.6-0.8-1.2-1.3
		c-0.5-0.5-1.2-1-2-1.7c-0.8-0.7-1.7-1.5-2.6-2.4c-0.8-0.9-1.6-1.8-2.3-2.7c-0.7-0.9-1.3-1.7-1.8-2.3
		C666.7,248.8,666.2,248.5,665.9,248.5z"/>
</g>
<path class="st4" d="M668.6,266.2c0,5.5,4.4,9.9,9.8,9.9c5.4,0,9.8-4.4,9.8-9.9s-4.4-9.9-9.8-9.9C673,256.3,668.6,260.7,668.6,266.2
	z"/>
<path class="st3" d="M93.3,230.2c-29,28-16.2,80,34.5,80c36.4,76.9,40.7,144.3,40.7,144.3h28.4c0,0,11.4-189-54.5-225
	C126.9,221.1,106,218,93.3,230.2z"/>
<g>
	<path class="st2" d="M141.9,273.1c0.4-1.4-6.8-4.7-12.1-6.1c-5.3-1.5-6.7-0.6-7.1,0.8c-0.4,1.4,0.4,2.9,5.7,4.4
		C133.7,273.6,141.5,274.5,141.9,273.1z"/>
	<path class="st2" d="M126.2,289.8c0.3-0.3,0.1-0.9-0.2-1.7c-0.3-0.8-0.9-1.9-1.4-3.1c-0.6-1.2-1.2-2.5-1.7-3.9
		c-0.6-1.4-1-2.7-1.5-4c-0.4-1.3-0.7-2.3-1-3.1c-0.3-0.8-0.6-1.4-0.9-1.9c-0.6-0.9-1.3-1.1-2-1.1c-0.7,0.1-1.4,0.4-1.7,1.6
		c-0.2,0.6-0.3,1.3-0.2,2.4c0.1,1,0.3,2.3,0.8,3.8c0.5,1.5,1.2,3.1,2.1,4.6c0.9,1.5,2,2.8,3,3.9c1.1,1.1,2.1,1.8,3,2.3
		C125.3,289.9,125.9,290.1,126.2,289.8z"/>
	<path class="st2" d="M105.5,290c0.4,0.1,0.8-0.3,1.3-1.1c0.3-0.4,0.5-0.8,0.8-1.3c0.3-0.5,0.6-1.1,0.9-1.7c1.2-2.4,2.5-5.4,3.6-7.9
		c0.3-0.6,0.5-1.2,0.7-1.7c0.2-0.5,0.3-1,0.5-1.4c0.2-0.9,0.4-1.5,0.3-2.1c0-1.1-0.5-1.6-1.1-2c-0.7-0.3-1.4-0.4-2.3,0.3
		c-0.4,0.4-0.9,0.9-1.4,1.7c-0.3,0.4-0.5,0.9-0.8,1.4c-0.3,0.5-0.5,1.1-0.8,1.8c-0.3,0.7-0.5,1.4-0.8,2.1c-0.1,0.4-0.2,0.7-0.4,1.1
		c-0.1,0.4-0.2,0.8-0.3,1.2c-0.2,0.8-0.4,1.5-0.5,2.3c-0.1,0.8-0.3,1.5-0.3,2.2c-0.1,0.7-0.1,1.4-0.1,1.9c0,0.6,0,1.1,0.1,1.6
		C104.9,289.3,105.1,289.9,105.5,290z"/>
	<path class="st2" d="M93.1,271.3c0,0.4,0.4,0.8,1.2,1.1c0.8,0.3,2,0.7,3.4,0.8c1.4,0.1,3,0.1,4.6-0.1c1.6-0.2,3.2-0.7,4.6-1.2
		c1.4-0.6,2.4-1.2,3.2-1.8c0.8-0.6,1.2-1.1,1.5-1.6c0.6-1,0.4-1.7,0-2.3c-0.4-0.6-1.1-1-2.1-0.9c-0.5,0-1.1,0.2-1.9,0.5
		c-0.7,0.3-1.7,0.6-2.8,1.1c-1.1,0.5-2.4,1-3.7,1.4c-1.3,0.4-2.6,0.8-3.8,1.2c-1.2,0.3-2.3,0.6-3,0.9
		C93.7,270.7,93.2,271,93.1,271.3z"/>
	<path class="st2" d="M95.5,255.2c-0.3,0.7,1.1,2,3.2,3.4c0.3,0.2,0.5,0.4,0.8,0.5c0.3,0.2,0.6,0.3,0.9,0.5c0.6,0.3,1.2,0.7,1.9,1
		c0.3,0.2,0.6,0.3,1,0.5c0.3,0.1,0.7,0.3,1,0.4c0.7,0.3,1.3,0.5,1.9,0.7c0.6,0.2,1.2,0.4,1.7,0.5c0.5,0.1,1,0.2,1.4,0.2
		c0.8,0.1,1.5,0.1,2-0.1c1-0.2,1.4-0.8,1.6-1.5c0.2-0.7,0.1-1.4-0.6-2.1c-0.4-0.3-0.9-0.7-1.6-1c-0.4-0.2-0.8-0.3-1.2-0.5
		c-0.5-0.2-1-0.4-1.6-0.6c-0.6-0.2-1.2-0.4-1.9-0.5c-0.3-0.1-0.6-0.2-1-0.2c-0.3-0.1-0.7-0.2-1-0.3c-0.7-0.2-1.3-0.3-2-0.5
		c-0.3-0.1-0.6-0.1-1-0.2c-0.3-0.1-0.6-0.1-0.9-0.2C97.7,254.7,95.8,254.6,95.5,255.2z"/>
	<path class="st2" d="M110.9,243.6c-0.4,0-0.7,0.5-1,1.4c-0.3,0.9-0.5,2.1-0.4,3.5c0,1.4,0.2,3.1,0.5,4.7c0.4,1.6,0.9,3.2,1.6,4.5
		c0.7,1.4,1.3,2.4,1.9,3.1c0.6,0.7,1.2,1.2,1.7,1.5c1,0.6,1.7,0.4,2.3-0.1c0.6-0.5,0.9-1.1,0.8-2.1c-0.1-0.5-0.3-1.1-0.6-1.9
		c-0.3-0.8-0.8-1.7-1.3-2.8c-0.6-1.1-1.2-2.4-1.7-3.7c-0.6-1.3-1.1-2.6-1.5-3.8c-0.5-1.2-0.8-2.3-1.2-3
		C111.6,244.1,111.2,243.6,110.9,243.6z"/>
	<path class="st2" d="M123.5,243.4c-0.3-0.1-0.8,0.2-1.4,0.9c-0.3,0.3-0.6,0.8-0.9,1.2c-0.3,0.5-0.6,1.1-0.9,1.7
		c-0.2,0.3-0.3,0.6-0.4,1c-0.1,0.3-0.3,0.7-0.4,1c-0.3,0.7-0.5,1.4-0.7,2.2c-0.1,0.4-0.2,0.8-0.3,1.1c-0.1,0.4-0.2,0.8-0.2,1.1
		c-0.1,0.4-0.1,0.8-0.2,1.1c-0.1,0.4-0.1,0.7-0.1,1.1c-0.1,0.7-0.1,1.4-0.1,1.9c0,0.6,0,1.1,0.1,1.6c0.1,0.9,0.3,1.6,0.5,2.1
		c0.5,1,1.2,1.3,1.9,1.2c0.7,0,1.4-0.3,1.9-1.2c0.2-0.5,0.4-1.1,0.6-1.9c0.1-0.4,0.2-0.9,0.2-1.4c0.1-0.5,0.2-1.1,0.2-1.7
		c0-0.3,0-0.7,0.1-1c0-0.3,0.1-0.7,0.1-1c0-0.3,0.1-0.7,0.1-1c0-0.4,0.1-0.7,0.1-1.1c0.1-0.7,0.1-1.4,0.2-2.1c0-0.3,0.1-0.7,0.1-1
		c0-0.3,0-0.7,0.1-1c0.1-0.6,0.1-1.2,0.1-1.8c0-0.6,0.1-1,0-1.5C124,244.1,123.9,243.6,123.5,243.4z"/>
	<path class="st2" d="M137.5,258.5c0-0.4-0.4-0.7-1.2-1.1c-0.8-0.3-2-0.6-3.3-0.6c-1.4,0-2.9,0.1-4.4,0.5c-1.5,0.4-3,1.1-4.2,1.8
		c-1.2,0.8-2.1,1.6-2.7,2.3c-0.6,0.7-0.9,1.3-1.1,1.9c-0.3,1.1,0.1,1.7,0.6,2.2c0.6,0.5,1.3,0.7,2.1,0.4c0.5-0.1,1-0.4,1.6-0.7
		c0.6-0.4,1.3-0.8,2.3-1.4c0.9-0.6,2-1.2,3.1-1.7c1.1-0.5,2.2-1,3.3-1.4c1-0.4,2-0.7,2.7-1C137,259.2,137.5,258.9,137.5,258.5z"/>
</g>
<path class="st4" d="M119.8,255.9c-5.2-1.6-10.8,1.3-12.4,6.4c-1.6,5.2,1.3,10.7,6.6,12.3s10.8-1.3,12.4-6.4
	C128,263,125,257.5,119.8,255.9z"/>
<path class="st3" d="M220.1,246.4l352,2.2c0,0,5-48.6,62-59.5c1-9.6,10.1-97.6,10.1-97.6C645.4,52,562,18.1,382.9,33.3
	c-179.1,15.2-237.4,56.1-232.2,87.5c0,0,4.5,59,7.4,70.5C199.9,194.1,220.1,246.4,220.1,246.4z"/>
<path class="st5" d="M572.7,246.2c0,0,48.2,50.2,54.3,70.8c6.1,20.5-452.3,20-450.6,0c1.7-20,44.3-72.9,44.3-72.9L572.7,246.2z"/>
<g>
	<path class="st2" d="M248.1,105c-1.1,0.1-1.5,5.7-1.2,9.7c0.3,3.9,1.2,4.7,2.3,4.6c1.1-0.1,1.9-1,1.6-4.9
		C250.5,110.5,249.2,104.9,248.1,105z"/>
	<path class="st2" d="M263.3,111.6c-0.2-0.1-0.6,0.1-1.1,0.5c-0.5,0.4-1.1,1-1.8,1.7c-0.7,0.7-1.4,1.4-2.2,2.1
		c-0.8,0.7-1.6,1.4-2.4,2c-0.8,0.6-1.4,1.1-1.8,1.5c-0.5,0.4-0.8,0.7-1,1.1c-0.5,0.6-0.5,1.1-0.2,1.6c0.2,0.5,0.6,0.8,1.5,0.8
		c0.4,0,1-0.2,1.6-0.5c0.7-0.3,1.5-0.8,2.4-1.5c0.9-0.7,1.8-1.6,2.6-2.6c0.8-1,1.4-2,1.9-3c0.5-1,0.7-1.9,0.8-2.6
		C263.6,112.1,263.5,111.7,263.3,111.6z"/>
	<path class="st2" d="M268.5,125.6c0-0.3-0.4-0.5-1-0.6c-0.3-0.1-0.7-0.1-1.1-0.2c-0.4-0.1-0.9-0.1-1.3-0.2
		c-1.9-0.2-4.3-0.4-6.2-0.5c-0.5,0-0.9,0-1.3,0c-0.4,0-0.8,0-1.1,0c-0.6,0.1-1.1,0.1-1.5,0.3c-0.7,0.3-1,0.7-1.1,1.3
		c-0.1,0.5,0.1,1,0.8,1.5c0.3,0.2,0.8,0.4,1.5,0.6c0.3,0.1,0.7,0.1,1.1,0.2c0.4,0.1,0.9,0.1,1.4,0.1c0.5,0,1.1,0,1.6,0
		c0.3,0,0.6,0,0.9,0c0.3,0,0.6,0,0.9-0.1c0.6-0.1,1.1-0.1,1.7-0.2c0.5-0.1,1.1-0.2,1.6-0.3c0.5-0.1,0.9-0.3,1.3-0.4
		c0.4-0.1,0.8-0.3,1-0.4C268.2,126.1,268.5,125.8,268.5,125.6z"/>
	<path class="st2" d="M258.9,138.5c0.3-0.1,0.4-0.5,0.5-1.1c0-0.6,0-1.5-0.3-2.5c-0.3-1-0.7-2.1-1.2-3.1c-0.5-1-1.2-2-2-2.8
		c-0.7-0.8-1.4-1.3-2-1.7c-0.6-0.4-1.1-0.6-1.5-0.7c-0.8-0.1-1.2,0.1-1.5,0.6c-0.3,0.4-0.4,1-0.1,1.6c0.1,0.3,0.4,0.7,0.8,1.1
		c0.4,0.4,0.8,1,1.4,1.6c0.6,0.7,1.2,1.4,1.8,2.1c0.6,0.8,1.2,1.5,1.7,2.3c0.5,0.7,1,1.4,1.4,1.8
		C258.3,138.3,258.6,138.5,258.9,138.5z"/>
	<path class="st2" d="M247.4,140.8c0.5,0.1,1.1-1.2,1.6-3c0.1-0.2,0.1-0.4,0.1-0.7c0-0.2,0.1-0.5,0.1-0.7c0.1-0.5,0.1-1,0.2-1.5
		c0-0.3,0.1-0.5,0.1-0.8c0-0.3,0-0.5,0-0.8c0-0.5,0-1,0-1.5c0-0.5,0-0.9-0.1-1.3c-0.1-0.4-0.1-0.7-0.2-1c-0.1-0.6-0.3-1-0.5-1.3
		c-0.4-0.6-0.9-0.8-1.4-0.7c-0.5,0.1-1,0.3-1.3,1c-0.1,0.3-0.3,0.8-0.3,1.3c0,0.3,0,0.6,0,1c0,0.4,0,0.8,0,1.2c0,0.4,0,0.9,0.1,1.4
		c0,0.2,0,0.5,0.1,0.7c0,0.2,0,0.5,0.1,0.7c0,0.5,0.1,1,0.2,1.4c0,0.2,0.1,0.5,0.1,0.7c0,0.2,0.1,0.5,0.1,0.7
		C246.5,139.5,246.9,140.8,247.4,140.8z"/>
	<path class="st2" d="M235.8,133.3c0.1,0.2,0.5,0.4,1.2,0.3c0.6,0,1.5-0.2,2.5-0.6c1-0.3,2-0.9,3-1.5c1-0.6,1.9-1.4,2.7-2.2
		c0.8-0.8,1.3-1.5,1.6-2.1c0.4-0.6,0.5-1.1,0.6-1.5c0.1-0.8-0.2-1.2-0.6-1.5c-0.4-0.3-1-0.4-1.6,0c-0.3,0.2-0.7,0.5-1.1,0.8
		c-0.4,0.4-1,0.9-1.6,1.6c-0.6,0.7-1.4,1.4-2.1,2.1c-0.7,0.7-1.5,1.4-2.2,1.9c-0.7,0.6-1.3,1.1-1.8,1.6
		C235.9,132.6,235.7,133,235.8,133.3z"/>
	<path class="st2" d="M232.6,124.7c0,0.3,0.3,0.5,0.9,0.7c0.3,0.1,0.7,0.2,1.1,0.3c0.4,0.1,0.9,0.2,1.4,0.2c0.2,0,0.5,0,0.8,0.1
		c0.3,0,0.5,0,0.8,0c0.5,0,1.1,0,1.7,0c0.3,0,0.6,0,0.8-0.1c0.3,0,0.6-0.1,0.8-0.1c0.3,0,0.5-0.1,0.8-0.1c0.3,0,0.5-0.1,0.8-0.2
		c0.5-0.1,0.9-0.2,1.3-0.4c0.4-0.1,0.7-0.3,1-0.4c0.6-0.3,1-0.6,1.3-0.9c0.6-0.6,0.6-1.1,0.4-1.6c-0.2-0.5-0.6-0.9-1.3-1
		c-0.4-0.1-0.8,0-1.4,0.1c-0.3,0-0.6,0.1-1,0.2c-0.4,0.1-0.8,0.2-1.2,0.3c-0.2,0.1-0.5,0.1-0.7,0.2c-0.2,0.1-0.5,0.1-0.7,0.2
		c-0.2,0.1-0.5,0.1-0.7,0.2c-0.2,0.1-0.5,0.1-0.7,0.2c-0.5,0.1-1,0.3-1.5,0.4c-0.2,0.1-0.5,0.1-0.7,0.2c-0.2,0.1-0.5,0.1-0.7,0.2
		c-0.4,0.1-0.9,0.2-1.2,0.4c-0.4,0.1-0.7,0.2-1,0.3C232.9,124.2,232.6,124.4,232.6,124.7z"/>
	<path class="st2" d="M239.4,111.6c-0.3,0.1-0.4,0.4-0.5,1.1c0,0.6,0.1,1.5,0.4,2.4c0.3,0.9,0.8,1.9,1.4,2.9
		c0.6,0.9,1.4,1.8,2.3,2.4c0.8,0.6,1.6,1,2.2,1.3c0.6,0.2,1.1,0.3,1.5,0.3c0.8-0.1,1.1-0.5,1.3-1c0.2-0.5,0.2-1-0.2-1.6
		c-0.2-0.3-0.5-0.6-0.9-0.9c-0.4-0.3-0.9-0.7-1.5-1.2c-0.6-0.5-1.3-1-1.9-1.7c-0.6-0.6-1.2-1.3-1.8-1.9c-0.5-0.6-1-1.2-1.4-1.6
		C240,111.7,239.6,111.5,239.4,111.6z"/>
</g>
<path class="st4" d="M244.3,123.7c0.1,3.2,2.8,5.8,5.9,5.6c3.1-0.1,5.5-2.9,5.3-6.1c-0.1-3.2-2.8-5.8-5.9-5.6
	C246.6,117.7,244.2,120.5,244.3,123.7z"/>
<g>
	<path class="st2" d="M376.3,113c0.2,1,5.9,0.9,9.8,0.2c3.9-0.7,4.5-1.7,4.3-2.8c-0.2-1-1.1-1.7-5-1
		C381.4,110.1,376.1,112,376.3,113z"/>
	<path class="st2" d="M381.2,97.2c-0.1,0.3,0.2,0.6,0.7,1c0.5,0.4,1.2,0.9,1.9,1.6c0.7,0.6,1.6,1.3,2.3,2c0.8,0.7,1.5,1.5,2.2,2.1
		c0.7,0.7,1.2,1.2,1.6,1.7c0.5,0.4,0.8,0.7,1.2,0.9c0.7,0.4,1.2,0.3,1.6,0.1c0.5-0.3,0.8-0.7,0.6-1.6c-0.1-0.4-0.3-1-0.6-1.6
		c-0.4-0.6-0.9-1.4-1.7-2.2c-0.8-0.8-1.8-1.6-2.8-2.3c-1-0.7-2.2-1.2-3.2-1.5c-1-0.4-2-0.5-2.6-0.6C381.7,96.9,381.3,97,381.2,97.2z
		"/>
	<path class="st2" d="M394.5,90.6c-0.3,0.1-0.4,0.5-0.5,1.1c0,0.3-0.1,0.7-0.1,1.1c0,0.4,0,0.9,0,1.3c0,1.9,0.1,4.3,0.2,6.3
		c0,0.5,0.1,0.9,0.1,1.3c0,0.4,0.1,0.7,0.1,1.1c0.1,0.6,0.3,1.1,0.4,1.4c0.3,0.7,0.8,0.9,1.4,0.9c0.5,0,1-0.2,1.4-0.9
		c0.2-0.4,0.3-0.9,0.4-1.5c0-0.3,0.1-0.7,0.1-1.1c0-0.4,0-0.9,0-1.4c0-0.5-0.1-1.1-0.2-1.6c0-0.3-0.1-0.6-0.1-0.8
		c-0.1-0.3-0.1-0.6-0.2-0.8c-0.1-0.6-0.2-1.1-0.4-1.6c-0.2-0.5-0.3-1-0.5-1.5c-0.2-0.5-0.4-0.9-0.5-1.3c-0.2-0.4-0.4-0.7-0.6-1
		C395.1,90.8,394.8,90.5,394.5,90.6z"/>
	<path class="st2" d="M408.4,98.8c-0.1-0.2-0.5-0.4-1.2-0.3c-0.6,0-1.5,0.2-2.5,0.6c-0.9,0.4-2,0.9-2.9,1.5c-1,0.7-1.9,1.4-2.6,2.2
		c-0.7,0.8-1.2,1.5-1.5,2.1c-0.3,0.6-0.4,1.1-0.5,1.5c-0.1,0.8,0.3,1.2,0.7,1.5c0.5,0.2,1,0.3,1.6-0.1c0.3-0.2,0.7-0.5,1.1-0.9
		c0.4-0.4,0.9-0.9,1.5-1.6c0.6-0.7,1.2-1.4,1.9-2.1c0.7-0.7,1.4-1.3,2.1-1.9c0.7-0.6,1.3-1.1,1.7-1.5
		C408.2,99.4,408.5,99,408.4,98.8z"/>
	<path class="st2" d="M412,109.9c0-0.5-1.3-1-3.1-1.2c-0.2,0-0.5-0.1-0.7-0.1c-0.2,0-0.5,0-0.7,0c-0.5,0-1,0-1.5,0
		c-0.3,0-0.5,0-0.8,0c-0.3,0-0.5,0-0.8,0.1c-0.5,0-1,0.1-1.5,0.2c-0.5,0.1-0.9,0.1-1.3,0.2c-0.4,0.1-0.7,0.2-1,0.3
		c-0.6,0.2-1,0.4-1.3,0.7c-0.6,0.5-0.7,1-0.5,1.5c0.1,0.5,0.4,1,1.1,1.2c0.3,0.1,0.8,0.2,1.4,0.2c0.3,0,0.6,0,1-0.1
		c0.4,0,0.8-0.1,1.2-0.1c0.4-0.1,0.9-0.1,1.4-0.2c0.2,0,0.5-0.1,0.7-0.1c0.2,0,0.5-0.1,0.7-0.1c0.5-0.1,1-0.2,1.4-0.3
		c0.2-0.1,0.5-0.1,0.7-0.2c0.2-0.1,0.4-0.1,0.7-0.2C410.7,111,412,110.4,412,109.9z"/>
	<path class="st2" d="M405.7,122.3c0.2-0.1,0.3-0.5,0.2-1.2c-0.1-0.6-0.4-1.5-0.8-2.4c-0.4-0.9-1.1-1.9-1.8-2.8
		c-0.7-0.9-1.6-1.8-2.4-2.4c-0.9-0.7-1.6-1.1-2.2-1.4c-0.6-0.3-1.2-0.4-1.6-0.4c-0.8,0-1.2,0.3-1.5,0.8c-0.2,0.5-0.3,1,0.2,1.6
		c0.2,0.3,0.5,0.6,1,1c0.4,0.4,1,0.9,1.7,1.4c0.7,0.6,1.5,1.2,2.3,1.9c0.8,0.7,1.5,1.4,2.2,2c0.7,0.6,1.2,1.2,1.7,1.6
		C405,122.2,405.4,122.4,405.7,122.3z"/>
	<path class="st2" d="M397.5,126.4c0.3,0,0.5-0.4,0.6-1c0.1-0.3,0.2-0.7,0.2-1.1c0-0.4,0.1-0.9,0.1-1.4c0-0.2,0-0.5,0-0.8
		c0-0.3,0-0.5-0.1-0.8c0-0.5-0.1-1.1-0.2-1.7c0-0.3-0.1-0.6-0.2-0.8c-0.1-0.3-0.1-0.5-0.2-0.8c-0.1-0.3-0.1-0.5-0.2-0.8
		c-0.1-0.3-0.2-0.5-0.3-0.7c-0.2-0.5-0.3-0.9-0.5-1.3c-0.2-0.4-0.4-0.7-0.5-1c-0.3-0.6-0.7-0.9-1-1.2c-0.6-0.5-1.1-0.4-1.6-0.2
		c-0.5,0.2-0.8,0.6-0.8,1.4c0,0.4,0.1,0.8,0.2,1.4c0.1,0.3,0.2,0.6,0.3,1c0.1,0.4,0.2,0.8,0.4,1.2c0.1,0.2,0.2,0.4,0.3,0.7
		c0.1,0.2,0.2,0.5,0.3,0.7c0.1,0.2,0.2,0.5,0.3,0.7c0.1,0.2,0.2,0.5,0.3,0.7c0.2,0.5,0.4,1,0.5,1.4c0.1,0.2,0.2,0.5,0.3,0.7
		c0.1,0.2,0.2,0.4,0.3,0.7c0.2,0.4,0.3,0.8,0.5,1.2c0.2,0.4,0.3,0.7,0.4,1C397,126.1,397.3,126.4,397.5,126.4z"/>
	<path class="st2" d="M383.7,121c0.1,0.2,0.5,0.4,1.1,0.3c0.6,0,1.5-0.2,2.3-0.6c0.9-0.4,1.8-1,2.7-1.7c0.9-0.7,1.6-1.6,2.1-2.5
		c0.5-0.9,0.9-1.7,1-2.3c0.2-0.6,0.2-1.2,0.1-1.5c-0.1-0.8-0.6-1.1-1.1-1.2c-0.5-0.1-1,0-1.5,0.4c-0.3,0.2-0.5,0.5-0.8,1
		c-0.3,0.4-0.6,1-1,1.6c-0.4,0.7-0.9,1.4-1.4,2.1c-0.5,0.7-1.1,1.4-1.7,2c-0.5,0.6-1.1,1.1-1.4,1.5
		C383.8,120.4,383.6,120.8,383.7,121z"/>
</g>
<path class="st4" d="M395.3,114.8c3.2-0.5,5.4-3.4,5-6.4c-0.5-3.1-3.5-5.1-6.7-4.6c-3.2,0.5-5.4,3.4-5,6.4
	C389.1,113.2,392.1,115.3,395.3,114.8z"/>
<g>
	<path class="st2" d="M537,123.3c0.5,1,5.9-0.8,9.4-2.5c3.5-1.8,3.9-2.9,3.4-3.8c-0.5-1-1.6-1.4-5.1,0.4
		C541.2,119.1,536.5,122.4,537,123.3z"/>
	<path class="st2" d="M537.4,106.8c0,0.3,0.3,0.5,0.9,0.8c0.6,0.3,1.4,0.6,2.3,1c0.9,0.4,1.9,0.8,2.8,1.3c1,0.5,1.9,1,2.7,1.4
		c0.8,0.5,1.5,0.9,2,1.1c0.6,0.3,1,0.5,1.4,0.6c0.7,0.2,1.2,0,1.6-0.4c0.4-0.4,0.5-0.9,0.2-1.7c-0.2-0.4-0.5-0.8-1-1.3
		c-0.5-0.5-1.3-1.1-2.2-1.6c-1-0.6-2.2-1.1-3.3-1.4c-1.2-0.4-2.4-0.6-3.5-0.6c-1.1-0.1-2,0-2.7,0.2
		C537.8,106.3,537.4,106.5,537.4,106.8z"/>
	<path class="st2" d="M548.4,96.7c-0.2,0.1-0.3,0.6-0.2,1.2c0,0.3,0.1,0.7,0.2,1.1c0.1,0.4,0.2,0.8,0.3,1.3c0.5,1.9,1.3,4.1,1.9,6
		c0.2,0.5,0.3,0.9,0.5,1.2c0.1,0.4,0.3,0.7,0.4,1c0.3,0.6,0.5,1,0.8,1.3c0.5,0.6,1,0.7,1.6,0.5c0.5-0.1,0.9-0.5,1.1-1.3
		c0.1-0.4,0.1-0.9,0-1.6c-0.1-0.3-0.1-0.7-0.2-1.1c-0.1-0.4-0.3-0.9-0.4-1.4c-0.2-0.5-0.4-1-0.6-1.5c-0.1-0.3-0.2-0.5-0.4-0.8
		c-0.1-0.3-0.3-0.5-0.4-0.8c-0.3-0.5-0.5-1-0.8-1.5c-0.3-0.5-0.6-0.9-0.9-1.3c-0.3-0.4-0.6-0.8-0.9-1.1c-0.3-0.3-0.6-0.6-0.8-0.8
		C549,96.8,548.6,96.6,548.4,96.7z"/>
	<path class="st2" d="M563.9,100.8c-0.2-0.2-0.6-0.2-1.2,0c-0.6,0.2-1.4,0.6-2.2,1.2c-0.8,0.6-1.7,1.4-2.4,2.3
		c-0.7,0.9-1.4,1.9-1.8,2.9c-0.5,1-0.7,1.8-0.8,2.5c-0.1,0.7-0.1,1.2-0.1,1.6c0.2,0.8,0.6,1.1,1.1,1.2c0.5,0.1,1,0,1.5-0.5
		c0.3-0.3,0.5-0.6,0.8-1.1c0.3-0.5,0.6-1.1,1-1.9c0.4-0.8,0.8-1.7,1.3-2.5c0.5-0.9,1-1.7,1.5-2.4c0.5-0.8,0.9-1.4,1.2-1.9
		C564,101.4,564.1,101,563.9,100.8z"/>
	<path class="st2" d="M570.5,110.5c-0.2-0.5-1.5-0.6-3.3-0.3c-0.2,0-0.5,0.1-0.7,0.1c-0.2,0-0.5,0.1-0.7,0.2c-0.5,0.1-1,0.2-1.5,0.4
		c-0.2,0.1-0.5,0.1-0.7,0.2c-0.2,0.1-0.5,0.2-0.7,0.3c-0.5,0.2-0.9,0.4-1.4,0.6c-0.4,0.2-0.8,0.4-1.1,0.6c-0.3,0.2-0.6,0.4-0.9,0.6
		c-0.5,0.4-0.8,0.7-1,1c-0.4,0.6-0.4,1.1-0.1,1.6c0.3,0.5,0.6,0.8,1.4,0.8c0.4,0,0.8-0.1,1.4-0.2c0.3-0.1,0.6-0.2,0.9-0.3
		c0.3-0.1,0.7-0.3,1.1-0.5c0.4-0.2,0.8-0.4,1.3-0.6c0.2-0.1,0.4-0.2,0.6-0.3c0.2-0.1,0.4-0.2,0.7-0.3c0.4-0.2,0.9-0.5,1.3-0.7
		c0.2-0.1,0.4-0.2,0.6-0.4c0.2-0.1,0.4-0.2,0.6-0.3C569.5,111.9,570.6,111,570.5,110.5z"/>
	<path class="st2" d="M567.8,124.1c0.2-0.2,0.1-0.6-0.1-1.2c-0.3-0.6-0.8-1.3-1.5-2.1c-0.7-0.8-1.6-1.6-2.5-2.2c-1-0.7-2-1.3-3-1.7
		c-1-0.4-1.8-0.6-2.5-0.7c-0.7-0.1-1.2-0.1-1.6,0c-0.8,0.2-1.1,0.6-1.2,1.2c-0.1,0.5,0,1,0.6,1.5c0.3,0.3,0.7,0.5,1.2,0.7
		c0.5,0.3,1.2,0.5,2.1,0.9c0.8,0.3,1.8,0.7,2.7,1.2c0.9,0.4,1.8,0.9,2.6,1.3c0.8,0.4,1.5,0.8,2.1,1
		C567.2,124.2,567.6,124.3,567.8,124.1z"/>
	<path class="st2" d="M561.1,130.3c0.2-0.1,0.4-0.5,0.3-1.1c0-0.3,0-0.7-0.1-1.1c-0.1-0.4-0.2-0.9-0.3-1.3c-0.1-0.2-0.1-0.5-0.2-0.7
		c-0.1-0.2-0.2-0.5-0.3-0.8c-0.2-0.5-0.4-1-0.7-1.5c-0.1-0.3-0.2-0.5-0.4-0.8c-0.1-0.2-0.3-0.5-0.4-0.7c-0.1-0.2-0.3-0.5-0.4-0.7
		c-0.1-0.2-0.3-0.4-0.5-0.6c-0.3-0.4-0.6-0.8-0.9-1.1c-0.3-0.3-0.5-0.6-0.8-0.8c-0.5-0.5-0.9-0.7-1.3-0.9c-0.7-0.3-1.2-0.1-1.6,0.3
		c-0.4,0.4-0.6,0.8-0.4,1.6c0.1,0.4,0.3,0.8,0.6,1.3c0.2,0.3,0.3,0.5,0.6,0.9c0.2,0.3,0.4,0.7,0.7,1c0.1,0.2,0.3,0.4,0.4,0.6
		c0.1,0.2,0.3,0.4,0.4,0.6c0.1,0.2,0.3,0.4,0.5,0.6c0.1,0.2,0.3,0.4,0.4,0.6c0.3,0.4,0.6,0.8,0.9,1.2c0.1,0.2,0.3,0.4,0.4,0.6
		c0.1,0.2,0.3,0.4,0.4,0.6c0.3,0.4,0.5,0.7,0.8,1c0.3,0.3,0.5,0.6,0.7,0.8C560.5,130.2,560.9,130.4,561.1,130.3z"/>
	<path class="st2" d="M546.4,129c0.2,0.2,0.6,0.2,1.2,0c0.6-0.2,1.3-0.6,2.1-1.3c0.7-0.6,1.5-1.5,2.1-2.4c0.6-0.9,1.1-2,1.4-3
		c0.3-1,0.4-1.8,0.3-2.5c0-0.7-0.2-1.2-0.3-1.5c-0.4-0.7-0.8-0.9-1.4-0.9c-0.5,0-1,0.2-1.3,0.8c-0.2,0.3-0.3,0.7-0.5,1.2
		c-0.1,0.5-0.3,1.1-0.5,1.9c-0.2,0.8-0.5,1.6-0.8,2.4c-0.3,0.8-0.7,1.6-1.1,2.3c-0.4,0.7-0.7,1.3-1,1.9
		C546.3,128.4,546.2,128.8,546.4,129z"/>
</g>
<path class="st4" d="M555.8,119.8c2.9-1.4,4.3-4.7,3-7.5c-1.3-2.8-4.7-4-7.7-2.6c-2.9,1.4-4.3,4.7-3,7.5
	C549.4,120,552.8,121.2,555.8,119.8z"/>
<path class="st6" d="M182.5,309.5c44.9-7,109.8,6.3,159.7,6.3c87.5,0,174.5-0.6,261.8-6.7c5.9-0.4,12.3-0.7,17.3,2.4
	c8.6,5.4,15.8,45.3,0.6,56.1c-15.2,10.9-197.4,12.2-296.3,11.7c-29.4-0.1-58.7-0.3-88.1-1.1c-17.3-0.5-35.6-1.5-50-10.8
	C172.9,358.2,171,311.3,182.5,309.5z"/>
<path class="st7" d="M538.3,229.5c4.4,8.7,9.3,17.7,7.2,26.4c-16.1,3.5-67.8,12.7-67.8,12.7s-8.8-18-7.9-21.4
	C482.2,245.4,521.9,234.4,538.3,229.5z"/>
<path class="st8" d="M530.4,230.3c21.5-4.5,42.3-6.4,50.9-2.7c7.4,3.2,11.3,9,12.2,15.7c0.9,6.3-55.3,21.3-57.6,7
	C533.6,236,530.4,230.3,530.4,230.3z"/>
<path class="st9" d="M608.5,261.1c-8.2-1.1-16.5-2.2-24.1-5.3c-7.6-3.2-14.6-8.7-17.7-16.4c11.1-5.3,18.8-17,19.5-29.3
	c15,1.9,41.2-28.5,56.3-26.6C623.6,232.4,610.2,242.8,608.5,261.1z"/>
<path class="st10" d="M608.5,261.1c-8.2-1.1,5.7-26.5-1.9-29.7c-7.6-3.2-13.5,1.5-27.7-2.1c4.2-5.5,6.9-12.3,7.2-19.2
	c15,1.9,41.2-28.5,56.3-26.6C623.6,232.4,610.2,242.8,608.5,261.1z"/>
<g>
	<polygon class="st7" points="126.9,173.3 149.8,185.1 142.9,202.5 121.4,189.3 	"/>
	<g>
		<path d="M156.2,197.2c-2.4,8.1-5.6,15.2-7.3,14.7c-1.7-0.5-1.4-8.4,1-16.6c2.4-8.1,6.4-14,8.1-13.5
			C159.8,182.3,158.6,189,156.2,197.2z"/>
		<path class="st11" d="M394.9,303.1c-109.5-10.9-252.5-99.5-252.5-99.5l7.8-21.3c0,0,244.3,65.4,264.6,62.6
			C413.1,254.1,394.9,289.7,394.9,303.1z"/>
		<path class="st12" d="M137.2,204.8c-2.1-7.6,5.2-25.4,9.9-26.5c4.7-1.2,8.2,1.1,11,3.5c-6.5,8.5-10.7,19.5-9.1,30.1
			C145,211.3,138,207.8,137.2,204.8z"/>
	</g>
	<g>
		<path class="st13" d="M128.4,195.1c-0.5,0.1-4.5,0.8-5,0.9c-11.3,1.3-21.9,0-23.4-1.7c-2.8-13.5,0.5-18.7-0.4-30.7
			c-0.7-10-4.9-37.8,10.9-47.8c22.6,1,19.3,12.1,19,22c0,1.5-2.3,21.4,0.9,34.7C125.3,179,127.4,191.5,128.4,195.1z"/>
		<path class="st14" d="M129.6,136c0.5-9.4,2.2-19.3-19.1-20.2c-7.4,4.7-10.4,13.3-11.5,22.1C109.6,138.8,120.2,139.3,129.6,136z"/>
		<path class="st15" d="M99.3,175.5c-0.5,5.4-1,10.6,0.7,18.8c1.4,1.7,11.8,3,23,1.8C121.4,186.1,110.6,179.1,99.3,175.5z"/>
		<g>
			<path class="st14" d="M120,146.9c-1.6-0.1-3.1,0.8-3.2,2.2c-0.1,1.3,1.1,2.5,2.7,2.7c1.6,0.1,2.9-0.7,3.2-2
				c2-0.3,4.1-0.3,6.1-0.1c0-0.9,0.1-1.8,0.1-2.6c-2.5-0.2-5.1-0.1-7.6,0.3C120.9,147,120.5,146.9,120,146.9z"/>
			<path class="st14" d="M128.7,154.4c-2.6-0.2-5.2,0-7.7,0.5c-0.5-0.3-1-0.5-1.7-0.6c-1.6-0.1-3.1,0.8-3.2,2.2
				c-0.1,1.3,1.1,2.5,2.7,2.7c1.4,0.1,2.7-0.6,3.1-1.7c2.2-0.4,4.5-0.5,6.8-0.4C128.7,156.2,128.7,155.3,128.7,154.4z"/>
			<path class="st14" d="M119.3,166.6c1.4,0.1,2.7-0.6,3.1-1.7c2.2-0.4,4.5-0.5,6.8-0.4c-0.1-0.9-0.2-1.8-0.2-2.7
				c-2.5-0.1-5,0-7.5,0.5c-0.5-0.3-1-0.6-1.7-0.6c-1.6-0.1-3.1,0.8-3.2,2.2C116.4,165.3,117.7,166.5,119.3,166.6z"/>
			<path class="st14" d="M120.3,174.3c1.5,0.1,2.9-0.7,3.2-1.9c2.3-0.4,4.6-0.4,6.9-0.2c-0.2-0.9-0.4-1.8-0.5-2.7
				c-2.5-0.2-5.1,0-7.6,0.4c-0.4-0.2-0.9-0.4-1.5-0.5c-1.6-0.1-3.1,0.8-3.2,2.2C117.4,172.9,118.6,174.1,120.3,174.3z"/>
		</g>
		<path class="st16" d="M106.3,164.5c-0.7-10.1-2.7-36.1,10.7-48.1c-1.9-0.3-4.1-0.6-6.5-0.7c-15.8,10-11.6,37.8-10.9,47.8
			c0.8,12-2.4,17.2,0.4,30.7c0.7,0.8,3.1,1.4,6.7,1.9C104.2,182.6,107.2,177,106.3,164.5z"/>
	</g>
</g>
<g>
	<polygon class="st7" points="265.2,287.3 274.6,178.3 299.5,187.1 284.5,288.6 	"/>
	<g>
		<path class="st13" d="M287,281.3c0.1,0.5,0.8,4.5,0.9,5c1.3,11.3-0.2,21.9-1.9,23.4c-13.6,2.7-18.7-0.5-30.7,0.2
			c-10,0.6-37.8,4.7-47.8-11.2c1.1-22.6,12.2-19.3,22.1-18.9c1.5,0.1,21.4,2.4,34.7-0.7C270.8,284.4,283.4,282.3,287,281.3z"/>
		<path class="st14" d="M227.8,279.8c-9.4-0.6-19.3-2.3-20.3,19c4.6,7.4,13.2,10.5,22,11.6C230.6,299.9,231.2,289.3,227.8,279.8z"/>
		<path class="st15" d="M267.2,310.3c5.4,0.5,10.6,1.1,18.8-0.6c1.7-1.4,3.1-11.8,1.9-23C277.9,288.3,270.8,299,267.2,310.3z"/>
		<g>
			<path class="st14" d="M238.7,289.5c-0.1,1.6,0.8,3.1,2.2,3.2c1.3,0.1,2.5-1.1,2.7-2.7c0.1-1.6-0.7-2.9-2-3.2
				c-0.3-2-0.3-4.1-0.1-6.1c-0.9,0-1.8-0.1-2.6-0.1c-0.2,2.5-0.1,5.1,0.2,7.6C238.9,288.6,238.7,289,238.7,289.5z"/>
			<path class="st14" d="M246.3,280.8c-0.2,2.6,0,5.2,0.4,7.7c-0.3,0.5-0.5,1-0.6,1.7c-0.1,1.6,0.8,3.1,2.2,3.2
				c1.3,0.1,2.5-1.1,2.7-2.7c0.1-1.4-0.6-2.7-1.7-3.1c-0.4-2.2-0.5-4.5-0.3-6.8C248,280.8,247.2,280.8,246.3,280.8z"/>
			<path class="st14" d="M258.5,290.3c0.1-1.4-0.6-2.7-1.7-3.1c-0.4-2.2-0.5-4.5-0.3-6.8c-0.9,0.1-1.8,0.1-2.7,0.2
				c-0.1,2.5,0,5,0.4,7.5c-0.3,0.5-0.6,1-0.6,1.7c-0.1,1.6,0.8,3.1,2.2,3.2C257.1,293.2,258.3,291.9,258.5,290.3z"/>
			<path class="st14" d="M266.1,289.4c0.1-1.5-0.7-2.9-1.9-3.2c-0.3-2.3-0.4-4.6-0.2-6.9c-0.9,0.2-1.8,0.4-2.7,0.5
				c-0.2,2.5,0,5.1,0.4,7.6c-0.3,0.4-0.4,0.9-0.5,1.5c-0.1,1.6,0.8,3.1,2.2,3.2C264.7,292.2,265.9,291,266.1,289.4z"/>
		</g>
		<path class="st16" d="M256.3,303.3c-10.1,0.7-36.1,2.5-48-11c-0.3,1.9-0.6,4.1-0.7,6.5c9.9,15.8,37.7,11.8,47.8,11.2
			c12-0.8,17.1,2.5,30.7-0.2c0.8-0.6,1.5-3.1,1.9-6.6C274.3,305.5,268.7,302.5,256.3,303.3z"/>
	</g>
	<g>
		<path d="M276.7,252.8c12.3,3.6,23.2,8,22.8,10.1c-0.4,2.1-12,1.1-24.3-2.5c-12.3-3.6-21.6-8.9-21.2-11
			C255.6,248.2,264.5,249.2,276.7,252.8z"/>
		<path class="st12" d="M260.4,259.4c0,0,24.5,7.9,32.1,7.6c4.9-16.4,11.3-33.1,14.3-61.6c5.9,22.9,22.6,62.1,28.4,75.2
			c10.9,20.9,22.1,40,83.6,32.5c1.4-11.6,3-65.4,3-65.4l-26.6,1.5c0,0-62.7-98.4-72.8-108.9c-9.5-9.8-40.9-7.3-49.1,11
			C269.3,160.4,260.4,259.4,260.4,259.4z"/>
		<path class="st17" d="M291.5,276.8c-10.6,2-34.9-4.5-37.5-10.4s-2.8-13.8,0-17c13.6,8.7,30.3,14.6,45.5,13.5
			C299.3,267.7,295.8,276,291.5,276.8z"/>
	</g>
</g>
<path class="st13" d="M422.2,246c86.8,7.8,128.4-19.7,156.7-16.7c-13.2,12.3,14.2,29,31.8,25c10.3,16.5,15.1,43.8-24.8,54.4
	c-39.8,10.5-55.3,9.3-87.7,9.4c-35.8,0.2-78.8,6.9-88.3,6.9C406.7,301.6,401.7,263.9,422.2,246z"/>
<g>
	<g>
		<path class="st18" d="M571.4,172.1c-0.5,6.3,0.5,11.5,2.3,11.6c1.8,0.1,3.6-4.8,4.1-11.1c0.5-6.3-0.5-11.5-2.3-11.6
			C573.7,160.9,571.9,165.9,571.4,172.1z"/>
		<path d="M570.5,172.1c-0.6,7.7,1.1,14,3.9,14.3c2.8,0.2,5.5-5.8,6.1-13.5c0.6-7.7-1.1-14-3.9-14.3
			C573.8,158.4,571.1,164.4,570.5,172.1z M571.4,172.1c0.5-6.3,2.3-11.2,4.1-11.1c1.8,0.1,2.8,5.3,2.3,11.6
			c-0.5,6.3-2.3,11.2-4.1,11.1C571.9,183.6,570.9,178.4,571.4,172.1z"/>
	</g>
	<path class="st7" d="M656.3,146.8c-18.6-22.2-49.6-25.8-59-17c-12.1,11.5-19.6,26.8-20,31.8c-0.2,3.1-0.1,6.3-1.2,9.2
		c-3.4,8.7-15.9,12.7-15,16.3c1.5,5.3,9.8,7,9.7,8.7c-0.1,1.1-0.2,28.9,2.2,30c9.2,3.9,21.2,3.9,40.7-0.3c7.2-1.5,6.1-9.3,7.8-17.9
		C637.5,193.2,677,171.5,656.3,146.8z"/>
	<path class="st19" d="M564.7,184.7c3.6,1.8,6.6,4.1,9.3,6.8c1-6,1.9-12,2.9-18C574.2,179,569.7,181.2,564.7,184.7z"/>
	<g>
		<path class="st14" d="M590.3,175.8c-1,0.6-10.1,2.9-10.1,2.9s-1.7-5.2-0.9-8C580.9,171.1,585.4,171.6,590.3,175.8z"/>
		<path class="st20" d="M582.4,171.3c0.9,1.1,1,5.2,0.2,6.8c-1.4,0.4-2.5,0.6-2.5,0.6s-1.7-5.2-0.9-8
			C580.2,171,581.4,171,582.4,171.3z"/>
		<path d="M581.3,174.4c0.2,1.8-0.4,3.3-1.4,3.7c-0.4-1.4-1.3-4.8-0.8-7C580.2,171.3,581.1,172.7,581.3,174.4z"/>
		<path class="st10" d="M578.6,172.8c1.2,0.2,6.8,0.2,12,3.2c-3-5.2-8-6.7-11.6-6.6C578.6,170,578.3,172.1,578.6,172.8z"/>
	</g>
	<path d="M583.9,171.9c13.2,1.9,47.6,6.1,47.8,5.2c0.1-0.9-34.1-6.6-47.3-8.5C584.3,169.2,583.9,171.1,583.9,171.9z"/>
	<path class="st21" d="M620.4,204.8c0.3,0.2,0.8,0,1.4-0.3c0,1-0.1,2,0,3.1c0.2,1.8,0.5,3.7,0.8,5.5c0.4,1.8,0.9,3.4,1.4,5
		c0.4,1.4,0.8,2.9,1.2,4.2c0.6,2.5,0.8,4.7,0.6,6.3c-0.2,1.6-0.5,2.8,0,3.3c0.4,0.4,1.8,0,3.3-1.7c0.2-0.3,0.5-0.7,0.7-1
		c0.2,0,0.3,0,0.6-0.1c0.6-0.2,1.7-0.6,2.5-1.6c1.9-1.7,3.6-5.2,3.9-9c0.1-1,0.2-1.9,0.3-2.9c0.1-1,0-1.8,0.1-2.8c0-0.4,0-0.8,0-1.2
		c0.2,2.6,0.4,5,0.3,6.9c-0.1,2.6-0.8,4.8-1.7,6.2c-0.8,1.5-1.7,2.4-1.4,3.1c0.1,0.3,0.5,0.5,1.2,0.5c0.6,0,1.7-0.1,2.7-0.8
		c1.6-0.7,3.1-2.3,4.4-4.5c0,0.2,0.1,0.5,0.2,0.6c0.7,0.7,4-1.1,7.5-5.1c-0.3,1.4-0.3,2.4,0.3,2.8c0.9,0.8,4.2-1.1,7.1-5.1
		c0.2-0.3,0.4-0.7,0.6-1.1c3.7-1.5,8-4.6,11.6-9.2c4.1-5.1,6.8-11.8,8.7-18.9c0.3-1.8,0.5-3.6,0.8-5.4c0.1-0.9,0.3-1.8,0.3-2.7
		c0-0.9,0-1.8,0-2.7c0-1.8-0.1-3.5-0.1-5.2c-0.3-1.7-0.6-3.3-0.9-4.9c-0.4-3.2-1.6-5.8-2.4-8.2c-0.8-2.4-1.9-4.3-2.9-5.9
		c-1-1.6-1.8-3-2.7-4c-0.9-1-1.8-1.8-2.5-2.4c-2.9-2.4-4-2-5-1.2c-0.1,0.1-0.2,0.2-0.3,0.3c-0.1-0.7-0.6-1.4-1.7-2.3
		c-2.1-1.3-6.9-3.3-15.3-1.1c-4.1,1.2-8.6,3.7-11.9,7.3c-3.4,3.6-5.5,8.1-6.4,12.2c-0.9,4.2-0.5,7.9,0.1,10.3
		c0.2,0.7,0.5,1.3,0.7,1.8c0,0.1-0.1,0.2-0.1,0.3c-0.4,1.3,0.1,2.8-0.8,6.5c-0.7,3.6-4,9.8-5.7,14.9
		C620.1,200.1,619.2,204.2,620.4,204.8z"/>
	<path class="st7" d="M635.7,180.4c4.2,3.8,3.6,12.7-1.4,19.8c-4.9,7.1-12.3,9.7-16.5,5.8c-4.2-3.8-3.6-12.7,1.4-19.8
		C624.1,179.1,631.5,176.5,635.7,180.4z"/>
	<path class="st10" d="M632.1,182.6c2.8,2.6,2.4,8.6-0.9,13.3c-3.3,4.8-8.3,6.5-11.2,3.9C617.2,197.3,629.3,180,632.1,182.6z"/>
	<path class="st22" d="M577.8,162c0.9,0.2,2.6,0.1,5.5,0.2c1.4,0.1,3.1,0.2,4.6,0.8c1.5,0.6,7.7,3.7,5.4,0.8
		c-1.1-1.5-2.7-2.7-4.5-3.6c-1.8-0.8-3.7-1.1-5.3-1.2c-3.2-0.1-4.9,0.3-5.8,0.7C577.7,160.7,577.7,161.5,577.8,162z"/>
	<g>
		<path class="st18" d="M575.6,173.1c-0.5,6.3,0.5,11.5,2.3,11.6c1.8,0.1,3.6-4.8,4.1-11.1c0.5-6.3-0.5-11.5-2.3-11.6
			C578,161.8,576.1,166.8,575.6,173.1z"/>
		<path d="M574.7,173c-0.6,7.7,1.1,14,3.9,14.3c2.8,0.2,5.5-5.8,6.1-13.5c0.6-7.7-1.1-14-3.9-14.3
			C578.1,159.3,575.3,165.3,574.7,173z M575.6,173.1c0.5-6.3,2.3-11.2,4.1-11.1c1.8,0.1,2.8,5.3,2.3,11.6s-2.3,11.2-4.1,11.1
			C576.2,184.5,575.1,179.3,575.6,173.1z"/>
	</g>
	<path class="st21" d="M583.7,135.1c1.8,3.8,4.7,7.1,8.2,9.9c1.9,1.1,3.7,2.5,5.7,3.2c1,0.4,2,0.8,3,1.1c1,0.2,2,0.3,2.9,0.5
		c1.2,0.3,2.4,0.2,3.4,0.2c-0.1,0.2-0.2,0.4-0.3,0.7c-1.9,4.2-2.5,9.8-1.7,15.4c0.3,2.9,1.4,5.3,2.2,7.8c0.9,2.6,1.7,4.6,2.6,6.7
		c1.7,4.1,2.4,7.6,2.4,10.2c0,2.6-0.5,4.1,0,4.4c0.3,0.2,1.7-0.9,2.5-3.8c0.2-0.6,0.3-1.4,0.4-2.1c0,0.6-0.1,1.2-0.2,1.7
		c-0.1,0.5-0.2,1-0.2,1.4c-0.1,0.4-0.2,0.8-0.3,1.1c-0.1,0.7-0.1,1.2,0.1,1.5c0.2,0.3,0.7,0.3,1.4,0c0.3-0.1,0.8-0.4,1.2-0.7
		c0.4-0.3,0.8-0.8,1.2-1.3c0.8-1,1.5-2.4,2-4c0.6,0.2,1.7,0.1,3.1-0.9c0.7-0.5,1.3-1.2,2-2c1.7,0.2,4.8-0.6,8.1-2.8
		c4.4-3,8.3-9,9.6-14.6c5.4-2,11-5.4,14.9-9.2c4.7-4.4,6.3-7.8,6.7-9.9c0.1-0.4,0.1-0.6,0-0.9c0.9,0.4,2.4,0.5,5.1,0.2
		c1.3,0.1,2.8-0.1,4.3-0.1c1.5,0.1,3.1,0.2,4.5,0.2c2.7,0.5,5,0.6,5.2,0c0.2-0.6-1.8-2-4.7-3.4c-1.5-0.5-3.2-1-5-1.4
		c-1.3-0.2-2.6-0.3-3.9-0.3c1.3-0.8,2.7-1.5,4-2.1c2.4-1,4.5-1.5,4.4-2.3c0-0.6-2.4-1.4-5.5-1.2c-2.1,0.1-4.3,0.8-6.3,1.8
		c1.2-4,1.9-8.4,0.9-8.9c-0.7-0.4-2.2,1.5-3.7,4.1c-0.3-0.7-0.5-1.4-0.9-2.1c-1.1-1.9-2.2-3.7-3.3-5.3c-2.6-2.9-4.7-4.7-5.2-4.3
		c-0.5,0.4,0.6,3,2.3,6c0.6,1.6,1.3,3.4,2.1,5.1c0.7,1.8,1,3.6,1.6,5.1c0.1,0.6,0.2,1,0.4,1.5c-0.3-0.5-0.7-1.1-1.1-1.8
		c-0.8-1-1.9-2.1-3.1-3.4c-1.2-1.4-2.8-2.6-4.8-4c-1.9-1.5-4.2-2.8-6.8-4.2c-10.6-5.7-25.7-7-35.9-4.4c-5.1,1-9.4,2.2-12.4,2.8
		c-0.5,0.1-0.8,0.2-1.2,0.2c-0.3-0.3-0.6-0.6-0.9-0.9c-3.4-4-4.9-8.3-6.3-8.3c-1.2-0.1-2.3,4.9,0.6,11.6c0.9,2.1,2.3,4.3,4,6.3
		c-1.3-1-2.5-2.1-3.4-3.2c-1.7-2-2.7-4.2-3.1-5.8c-0.4-1.6-0.3-2.9-0.9-3.3c-0.5-0.4-1.9,0.2-2.9,2.5
		C581.7,127.6,582,131.4,583.7,135.1z"/>
	<path class="st23" d="M572.4,206.3c1.6,0,3.5-0.1,5.4-0.4c1.8-0.3,3.7-0.7,5.3-1c3.3-0.8,5.7-1.6,5.7-1.3c0,0.3-2.3,1.7-5.6,3
		c-1.6,0.6-3.5,1.2-5.4,1.6c-1.9,0.4-3.7,0.5-5.4,0.6c-0.2,0-0.8,0-1.4,0c0-0.8,0-1.6-0.1-2.4C571.6,206.3,572.2,206.3,572.4,206.3z
		"/>
	<path class="st10" d="M564.7,188.6c-0.2,0.4,0.8,1.5,2.4,2.3c1.6,0.8,3,1.2,3.3,0.7c0.2-0.4-0.8-1.5-2.4-2.3
		C566.4,188.5,564.9,188.2,564.7,188.6z"/>
</g>
<path class="st8" d="M571.3,302.2c6.2,9.4,9.1,18.8,6.5,20.5c-4.6,0.4-26.3-23.9-26.8-34C551.9,287.8,565,292.8,571.3,302.2z"/>
<g>
	<polygon class="st24" points="406.6,238.5 504.2,236.9 519.2,264.2 403,268.3 	"/>
	<path class="st25" d="M519.2,264.2c0,0,0,4.3-3.4,4.4c-3.3,0.1-108.4,3.8-110.7,3.8c-2.3,0-2.2-4.1-2.2-4.1L519.2,264.2z"/>
	<polygon points="406.6,238.5 383,150.6 374.7,161.6 403,268.3 	"/>
	<path class="st25" d="M403,268.3c0,0-2.3,0.5-2.9-1.6c-0.6-2.1-27.1-101.4-27.7-103.6c-0.6-2.1,8.1-11.4,8.6-12
		c0.5-0.6,2.1-0.5,2.1-0.5l-7.7,12L403,268.3z"/>
	<g>
		<polygon class="st26" points="452.6,241.4 460.1,241.2 459.7,239.3 452.3,239.5 		"/>
		<polygon class="st26" points="453,244.1 460.6,243.8 460.2,241.8 452.7,242.1 		"/>
		<polygon class="st26" points="453.4,246.7 461,246.5 460.7,244.5 453.1,244.7 		"/>
		<polygon class="st26" points="453.8,249.5 461.6,249.3 461.2,247.2 453.5,247.4 		"/>
		<polygon class="st26" points="454.2,252.3 462.1,252.1 461.7,249.9 453.9,250.2 		"/>
		<polygon class="st26" points="454.7,255.2 462.6,255 462.2,252.8 454.3,253 		"/>
		<polygon class="st26" points="455.1,258.2 463.1,258 462.7,255.7 454.8,255.9 		"/>
		<polygon class="st26" points="455.5,261.2 463.7,261 463.3,258.7 455.2,258.9 		"/>
		<polygon class="st26" points="456,264.4 464.3,264.1 463.8,261.7 455.7,262 		"/>
		<polygon class="st26" points="443.5,241.7 450.9,241.5 450.6,239.5 443.3,239.8 		"/>
		<polygon class="st26" points="443.8,244.3 451.3,244.1 451,242.1 443.6,242.3 		"/>
		<polygon class="st26" points="444,247 451.7,246.8 451.4,244.8 443.8,245 		"/>
		<polygon class="st26" points="444.3,249.8 452,249.6 451.8,247.5 444.1,247.7 		"/>
		<polygon class="st26" points="444.6,252.6 452.4,252.4 452.1,250.2 444.4,250.4 		"/>
		<polygon class="st26" points="444.9,255.5 452.8,255.3 452.5,253.1 444.7,253.3 		"/>
		<polygon class="st26" points="445.2,258.5 453.3,258.2 452.9,256 445,256.2 		"/>
		<polygon class="st26" points="445.6,261.5 453.7,261.3 453.4,259 445.3,259.2 		"/>
		<polygon class="st26" points="445.9,264.6 454.1,264.4 453.8,262 445.6,262.3 		"/>
		<polygon class="st26" points="434.4,242 441.8,241.8 441.6,239.8 434.3,240.1 		"/>
		<polygon class="st26" points="434.5,244.6 442,244.4 441.9,242.4 434.4,242.6 		"/>
		<polygon class="st26" points="434.7,247.3 442.3,247.1 442.1,245 434.6,245.3 		"/>
		<polygon class="st26" points="434.9,250.1 442.6,249.8 442.4,247.7 434.7,248 		"/>
		<polygon class="st26" points="435.1,252.9 442.8,252.7 442.6,250.5 434.9,250.7 		"/>
		<polygon class="st26" points="435.2,255.8 443.1,255.5 442.9,253.3 435.1,253.6 		"/>
		<polygon class="st26" points="435.4,258.7 443.4,258.5 443.2,256.3 435.3,256.5 		"/>
		<polygon class="st26" points="435.6,261.8 443.7,261.6 443.5,259.2 435.5,259.5 		"/>
		<polygon class="st26" points="435.8,264.9 444,264.7 443.8,262.3 435.6,262.5 		"/>
		<polygon class="st26" points="425.3,242.3 432.7,242.1 432.6,240.1 425.3,240.3 		"/>
		<polygon class="st26" points="425.3,244.9 432.8,244.7 432.7,242.7 425.3,242.9 		"/>
		<polygon class="st26" points="425.4,247.6 433,247.4 432.9,245.3 425.4,245.5 		"/>
		<polygon class="st26" points="425.4,250.3 433.1,250.1 433,248 425.4,248.2 		"/>
		<polygon class="st26" points="425.5,253.2 433.3,252.9 433.2,250.8 425.5,251 		"/>
		<polygon class="st26" points="425.6,256.1 433.4,255.8 433.3,253.6 425.5,253.8 		"/>
		<polygon class="st26" points="425.6,259 433.6,258.8 433.5,256.5 425.6,256.8 		"/>
		<polygon class="st26" points="425.7,262.1 433.8,261.8 433.6,259.5 425.6,259.7 		"/>
		<polygon class="st26" points="425.7,265.2 433.9,265 433.8,262.6 425.7,262.8 		"/>
		<polygon class="st26" points="416.2,242.6 423.6,242.3 423.6,240.4 416.3,240.6 		"/>
		<polygon class="st26" points="416.2,245.2 423.6,245 423.6,243 416.2,243.2 		"/>
		<polygon class="st26" points="416.1,247.9 423.7,247.6 423.6,245.6 416.2,245.8 		"/>
		<polygon class="st26" points="416.1,250.6 423.7,250.4 423.7,248.3 416.1,248.5 		"/>
		<polygon class="st26" points="416,253.4 423.7,253.2 423.7,251.1 416,251.3 		"/>
		<polygon class="st26" points="415.9,256.3 423.8,256.1 423.7,253.9 416,254.1 		"/>
		<polygon class="st26" points="415.9,259.3 423.8,259.1 423.8,256.8 415.9,257 		"/>
		<polygon class="st26" points="415.8,262.3 423.8,262.1 423.8,259.8 415.8,260 		"/>
		<polygon class="st26" points="415.7,265.5 423.9,265.2 423.8,262.9 415.8,263.1 		"/>
		<polygon class="st26" points="461.6,240.8 468.1,240.7 467.6,239 461.3,239.1 		"/>
		<polygon class="st26" points="466,264.1 474.2,263.9 473.5,261.4 465.5,261.6 		"/>
		<polygon class="st26" points="462.2,244.2 469,244.1 468.2,241.4 461.7,241.5 		"/>
		<polygon class="st26" points="465.4,261 473.4,260.8 472.3,256.8 464.7,257 		"/>
		<polygon class="st26" points="464.5,256.3 472.1,256.1 469.1,244.5 462.3,244.6 		"/>
	</g>
</g>
<path class="st7" d="M439.8,245.7c3-0.3,12.4,2.6,16.9,5.5c3.8,2.5,4.5,9.8,10.9,14.9c21.8,17,56.2,40.6,56.2,40.6l0,0
	c15.7-8.1,43.4-22.8,54.9-31c6.9,6.8,14.5,13.8,15.4,22.7c-14.1,8.5-62.3,42.3-74.9,39c-13.1-0.4-62.7-62.9-62.7-62.9
	s-6-0.4-9.9-3.1c-3.9-2.7-9-10.5-9.9-11.4c-1.1-1.1-7.3-1.3-13-0.8C419.1,259.1,432.1,246.5,439.8,245.7z"/>
<path class="st27" d="M550.9,288.7c16.3-14.7,33.3-26.9,42.6-28c8-1,14.3,2.1,18.5,7.4c3.9,5,4.5,11.1,3.4,18.1
	c-2,12.6-22.3,25.9-37.7,36.5c0,0-2.7-8.4-11.9-19.5C556.6,292,550.9,288.7,550.9,288.7z"/>
<g>
	<path class="st10" d="M504,235.6c0-0.4-0.5-0.8-1.2-1.2c-0.7-0.4-1.6-0.7-2.6-1.2c-1-0.4-2-0.9-3.1-1.4c-1-0.5-2-1.1-2.9-1.6
		c-0.9-0.5-1.6-0.9-2.2-1.2c-0.6-0.3-2.4-1.2-2.9-1.2c-0.9-0.1-0.4,1-1,1.6c-0.6,0.6-1,1.3-0.8,2.4c0.2,0.5,0.5,1.2,1.1,1.8
		c0.6,0.7,1.5,1.4,2.7,2.1c1.2,0.7,2.7,1.3,4.2,1.6c1.5,0.3,3,0.4,4.3,0.3c1.3-0.1,2.4-0.4,3.2-0.8C503.6,236.4,504,236,504,235.6z"
		/>
	<path class="st7" d="M498.5,242.6c-0.1-1.5-0.4-3.2-1-4.9c-0.1-0.4-0.3-0.9-0.5-1.3c-0.1-0.2-0.2-0.4-0.3-0.6
		c-0.1-0.2-0.2-0.4-0.3-0.6c-0.4-0.8-0.9-1.6-1.4-2.3c-4-6.1-10.1-6.7-14.9-6c-3.8,0.5-6.8,3.3-7.7,6.9c0,0.1-0.1,0.3-0.1,0.5
		c-0.1,0.5-0.2,1-0.2,1.6c0,0.3-0.1,0.6-0.1,0.9c0,0.3,0,0.6,0,0.9c0,0.3,0,0.6,0.1,0.9c0,0.3,0.1,0.6,0.1,1
		c0.1,0.6,0.2,1.3,0.4,1.8c0.1,0.3,0.2,0.6,0.3,0.9c0.1,0.3,0.2,0.6,0.3,0.8c0.2,0.5,0.5,1,0.7,1.4c0.2,0.4,0.5,0.8,0.8,1
		c0.5,0.5,1,0.8,1.4,0.7c0.4-0.1,0.7-0.6,1-1.3c0.1-0.3,0.2-0.7,0.3-1.1c0.1-0.4,0.2-0.9,0.2-1.4c0-0.2,0.1-0.5,0.1-0.7l0,0
		c0,0,0,0,0,0.1c0.6,1.6,1.4,3,2.4,4c0.9,1.1,2,1.8,2.8,2.1c0.8,0.3,1.5,0.3,1.8,0c0.3-0.3,0.3-0.9,0.1-1.7
		c-0.2-0.8-0.5-1.7-0.7-2.7c-0.3-1-0.5-2.1-0.6-3.2c-0.1-0.6-0.1-1.3-0.1-1.9c0,0.2,0.1,0.4,0.2,0.6c0.1,0.4,0.3,0.8,0.4,1.2
		c0.1,0.4,0.3,0.8,0.4,1.2c0.2,0.4,0.4,0.8,0.5,1.2c0.2,0.4,0.4,0.8,0.6,1.2c0.1,0.2,0.2,0.4,0.3,0.6c0.1,0.2,0.2,0.4,0.3,0.5
		c0.2,0.4,0.4,0.7,0.7,1c0.2,0.3,0.4,0.7,0.7,1c0.5,0.6,0.9,1.1,1.4,1.6c0.2,0.2,0.4,0.4,0.7,0.6c0.2,0.2,0.4,0.4,0.6,0.5
		c0.8,0.6,1.4,0.8,1.8,0.6c0.4-0.2,0.4-0.9,0.3-1.8c0-0.2-0.1-0.5-0.1-0.7c-0.1-0.3-0.1-0.5-0.2-0.8c-0.1-0.6-0.3-1.2-0.5-1.9
		c-0.1-0.3-0.2-0.7-0.3-1c-0.1-0.3-0.2-0.7-0.3-1.1c0-0.2-0.1-0.4-0.1-0.5c-0.1-0.2-0.1-0.4-0.1-0.5c-0.1-0.4-0.2-0.7-0.3-1.1
		c-0.1-0.4-0.2-0.7-0.3-1.1c-0.1-0.4-0.2-0.7-0.2-1.1c-0.1-0.4-0.2-0.7-0.3-1.1c-0.1-0.2-0.1-0.3-0.1-0.5c0-0.2-0.1-0.3-0.1-0.5
		c0-0.1-0.1-0.3-0.1-0.4c0.2,0.2,0.4,0.5,0.6,0.7c0.4,0.5,0.7,1,1.1,1.6c0.1,0.1,0.2,0.3,0.3,0.4c0.1,0.1,0.2,0.3,0.3,0.4
		c0.2,0.3,0.3,0.6,0.5,0.9c0.7,1.2,1.4,2.6,2,3.8c0.6,1.2,1.2,2.3,1.8,3.1c0.6,0.8,1.1,1.2,1.5,1.1c0.4-0.1,0.7-0.7,0.9-1.6
		C498.5,245.4,498.6,244.1,498.5,242.6z"/>
</g>
</svg>
