<svg width="183" height="54" viewBox="0 0 183 54" fill="none" xmlns="http://www.w3.org/2000/svg">
<rect width="183" height="54" fill="white"/>
<path d="M14.6635 17.6031V46.4047H10.3365V17.6031H14.9539M19 14H6V50H19V14Z" fill="#4F45E4"/>
<path d="M32.6729 17.0035V49.0052H28.3365V17.0035H32.9539M37 13H24V53H37V13Z" fill="#4F45E4"/>
<path d="M23.6635 5.50389V41.5058H19.3271V5.50389H23.9445M28 1H15V46H28V1Z" fill="#4F45E4"/>
<path d="M41.6635 8.47021V42.9754H37.3271V8.47021H41.9445M46 4.15356H33V47.2827H46V4.15356V4.15356Z" fill="#4F45E4"/>
<path d="M78.9345 25.3921V36.1844C78.5163 36.6956 77.8707 37.2505 76.9975 37.849C76.1243 38.4351 74.9989 38.9401 73.6215 39.3641C72.2441 39.788 70.5776 40 68.6221 40C66.888 40 65.3077 39.7132 63.881 39.1396C62.4544 38.5536 61.2246 37.6994 60.1915 36.5772C59.1707 35.4549 58.3836 34.0833 57.8302 32.4623C57.2767 30.8288 57 28.9646 57 26.8697V25.1677C57 23.0728 57.2644 21.2086 57.7933 19.5752C58.3344 17.9417 59.1031 16.5638 60.0992 15.4416C61.0954 14.3193 62.2822 13.4652 63.6597 12.8791C65.0371 12.293 66.5683 12 68.2532 12C70.5899 12 72.5085 12.3866 74.0089 13.1597C75.5093 13.9203 76.6531 14.9802 77.4402 16.3393C78.2396 17.686 78.7316 19.2322 78.916 20.978H73.5477C73.4124 20.0552 73.1542 19.2509 72.7729 18.5651C72.3916 17.8793 71.8444 17.3431 71.131 16.9566C70.43 16.57 69.5199 16.3768 68.4008 16.3768C67.4784 16.3768 66.6544 16.57 65.9288 16.9566C65.2154 17.3307 64.6128 17.8855 64.1209 18.6212C63.6289 19.3569 63.2538 20.2672 62.9955 21.352C62.7373 22.4369 62.6081 23.6963 62.6081 25.1303V26.8697C62.6081 28.2913 62.7434 29.5507 63.014 30.648C63.2846 31.7328 63.6843 32.6493 64.2131 33.3975C64.7542 34.1332 65.4184 34.688 66.2055 35.0621C66.9926 35.4362 67.9088 35.6232 68.9542 35.6232C69.8274 35.6232 70.553 35.5484 71.131 35.3988C71.7214 35.2492 72.1949 35.0684 72.5515 34.8564C72.9205 34.6319 73.2034 34.42 73.4001 34.2204V29.3948H68.3454V25.3921H78.9345Z" fill="#4F45E4"/>
<path d="M93.8403 35.0621V26.0468C93.8403 25.3984 93.7358 24.8435 93.5267 24.3821C93.3176 23.9083 92.9917 23.5404 92.549 23.2786C92.1185 23.0167 91.5589 22.8858 90.8702 22.8858C90.2799 22.8858 89.7695 22.9918 89.3391 23.2037C88.9086 23.4033 88.5765 23.6963 88.3429 24.0828C88.1092 24.4569 87.9924 24.8996 87.9924 25.4108H82.6794C82.6794 24.5504 82.8762 23.7337 83.2697 22.9606C83.6633 22.1875 84.2352 21.5079 84.9854 20.9218C85.7356 20.3233 86.6272 19.8557 87.6603 19.519C88.7057 19.1824 89.874 19.014 91.1654 19.014C92.715 19.014 94.0924 19.2759 95.2977 19.7996C96.503 20.3233 97.45 21.1089 98.1387 22.1563C98.8397 23.2037 99.1902 24.513 99.1902 26.0842V34.7442C99.1902 35.8539 99.2578 36.7642 99.3931 37.475C99.5284 38.1732 99.7252 38.7842 99.9835 39.3079V39.6259H94.6151C94.3569 39.0773 94.1601 38.3914 94.0248 37.5685C93.9018 36.733 93.8403 35.8976 93.8403 35.0621ZM94.5413 27.2999L94.5782 30.3487H91.6081C90.9071 30.3487 90.2983 30.4297 89.7818 30.5919C89.2653 30.754 88.841 30.9846 88.5089 31.2839C88.1768 31.5707 87.9309 31.9074 87.771 32.2939C87.6234 32.6805 87.5496 33.1044 87.5496 33.5658C87.5496 34.0272 87.6542 34.4449 87.8632 34.819C88.0723 35.1806 88.3736 35.4674 88.7672 35.6794C89.1607 35.8789 89.6219 35.9786 90.1508 35.9786C90.9502 35.9786 91.645 35.8165 92.2354 35.4923C92.8257 35.1681 93.2807 34.7691 93.6005 34.2953C93.9326 33.8214 94.1047 33.3725 94.117 32.9486L95.5191 35.2305C95.3223 35.7417 95.0517 36.2717 94.7074 36.8203C94.3753 37.369 93.951 37.8864 93.4345 38.3727C92.9179 38.8466 92.2969 39.2394 91.5712 39.5511C90.8456 39.8504 89.9847 40 88.9886 40C87.7218 40 86.5719 39.7444 85.5388 39.2331C84.518 38.7094 83.7063 37.9924 83.1037 37.0822C82.5134 36.1594 82.2182 35.112 82.2182 33.9399C82.2182 32.88 82.415 31.9385 82.8085 31.1156C83.2021 30.2926 83.7801 29.6005 84.5426 29.0394C85.3174 28.4658 86.2829 28.0356 87.4389 27.7488C88.595 27.4496 89.9355 27.2999 91.4606 27.2999H94.5413Z" fill="#4F45E4"/>
<path d="M119.169 35.4175V39.6259H104.005V35.4175H119.169ZM118.874 22.493L106.145 39.6259H102.585V36.4275L115.258 19.3881H118.874V22.493ZM116.992 19.3881V23.6152H102.88V19.3881H116.992Z" fill="#4F45E4"/>
<path d="M131.4 40C129.851 40 128.461 39.7506 127.231 39.2518C126.001 38.7406 124.956 38.0361 124.095 37.1383C123.246 36.2405 122.594 35.1993 122.139 34.0147C121.684 32.8176 121.457 31.5458 121.457 30.1991V29.4509C121.457 27.9172 121.672 26.5144 122.102 25.2425C122.533 23.9706 123.148 22.8671 123.947 21.9319C124.759 20.9967 125.743 20.2797 126.899 19.7809C128.055 19.2697 129.359 19.014 130.81 19.014C132.224 19.014 133.479 19.2509 134.573 19.7248C135.668 20.1986 136.584 20.872 137.322 21.7448C138.072 22.6177 138.638 23.6651 139.019 24.8871C139.4 26.0966 139.591 27.4433 139.591 28.9272V31.1717H123.726V27.5805H134.37V27.169C134.37 26.4208 134.235 25.7537 133.964 25.1677C133.706 24.5691 133.313 24.0953 132.784 23.7462C132.255 23.397 131.578 23.2224 130.754 23.2224C130.053 23.2224 129.451 23.3783 128.947 23.69C128.442 24.0018 128.03 24.4382 127.711 24.9993C127.403 25.5605 127.169 26.2213 127.01 26.982C126.862 27.7301 126.788 28.5531 126.788 29.4509V30.1991C126.788 31.0096 126.899 31.7577 127.12 32.4436C127.354 33.1294 127.68 33.7217 128.098 34.2204C128.528 34.7192 129.045 35.1058 129.648 35.3801C130.263 35.6544 130.957 35.7916 131.732 35.7916C132.691 35.7916 133.583 35.6045 134.407 35.2305C135.243 34.8439 135.963 34.2641 136.566 33.491L139.148 36.334C138.73 36.945 138.158 37.5311 137.433 38.0922C136.719 38.6533 135.858 39.1147 134.85 39.4763C133.841 39.8254 132.691 40 131.4 40Z" fill="#4F45E4"/>
<path d="M152.394 19.3881V23.2037H140.772V19.3881H152.394ZM143.649 14.3941H148.962V33.5284C148.962 34.1145 149.036 34.5633 149.184 34.8751C149.344 35.1868 149.577 35.405 149.885 35.5297C150.192 35.642 150.58 35.6981 151.047 35.6981C151.379 35.6981 151.674 35.6856 151.933 35.6607C152.203 35.6232 152.431 35.5858 152.615 35.5484L152.634 39.5137C152.179 39.6633 151.687 39.7818 151.158 39.8691C150.629 39.9564 150.045 40 149.405 40C148.237 40 147.216 39.8067 146.343 39.4202C145.482 39.0212 144.818 38.3852 144.351 37.5124C143.883 36.6395 143.649 35.4923 143.649 34.0708V14.3941Z" fill="#4F45E4"/>
<path d="M154.091 29.7128V29.32C154.091 27.8361 154.3 26.4707 154.718 25.2238C155.136 23.9644 155.745 22.8733 156.545 21.9506C157.344 21.0278 158.328 20.3108 159.496 19.7996C160.665 19.2759 162.005 19.014 163.518 19.014C165.031 19.014 166.377 19.2759 167.558 19.7996C168.739 20.3108 169.729 21.0278 170.528 21.9506C171.34 22.8733 171.955 23.9644 172.373 25.2238C172.791 26.4707 173 27.8361 173 29.32V29.7128C173 31.1841 172.791 32.5495 172.373 33.809C171.955 35.0559 171.34 36.147 170.528 37.0822C169.729 38.0049 168.745 38.7219 167.576 39.2331C166.408 39.7444 165.067 40 163.555 40C162.042 40 160.695 39.7444 159.515 39.2331C158.346 38.7219 157.356 38.0049 156.545 37.0822C155.745 36.147 155.136 35.0559 154.718 33.809C154.3 32.5495 154.091 31.1841 154.091 29.7128ZM159.404 29.32V29.7128C159.404 30.5607 159.478 31.3525 159.625 32.0882C159.773 32.8239 160.007 33.4723 160.326 34.0334C160.658 34.5821 161.089 35.0122 161.618 35.324C162.147 35.6357 162.792 35.7916 163.555 35.7916C164.293 35.7916 164.926 35.6357 165.455 35.324C165.984 35.0122 166.408 34.5821 166.728 34.0334C167.047 33.4723 167.281 32.8239 167.429 32.0882C167.589 31.3525 167.669 30.5607 167.669 29.7128V29.32C167.669 28.497 167.589 27.7239 167.429 27.0007C167.281 26.265 167.041 25.6166 166.709 25.0554C166.39 24.4819 165.965 24.033 165.436 23.7088C164.908 23.3845 164.268 23.2224 163.518 23.2224C162.768 23.2224 162.128 23.3845 161.599 23.7088C161.083 24.033 160.658 24.4819 160.326 25.0554C160.007 25.6166 159.773 26.265 159.625 27.0007C159.478 27.7239 159.404 28.497 159.404 29.32Z" fill="#4F45E4"/>
</svg>
